# xmcd
#
# Track frame offsets: 
#        150
#        19234
#        31819
#        46348
#        71040
#        89306
#        125519
#        142582
#        159824
#
# Disc length: 2395 seconds
#
# Revision: 0
# Processed by: cddbd v1.5.2PL0 Copyright (c) Steve Scherf et al.
# Submitted via: ExactAudioCopy v1.0b3
#
DISCID=68095909
DTITLE=Pristine - No Regret
DYEAR=2012
DGENRE=Blues
TTITLE0=Carry Your Own Weight
TTITLE1=She Won
TTITLE2=Tell Me
TTITLE3=The Occasional Wife
TTITLE4=One Good Reason
TTITLE5=No Regret
TTITLE6=Pistols And Petticoats
TTITLE7=One Good Reason  (Feat. Bjørn Berge)
TTITLE8=Beyond Retreat
EXTD=
EXTT0=
EXTT1=
EXTT2=
EXTT3=
EXTT4=
EXTT5=
EXTT6=
EXTT7=
EXTT8=
PLAYORDER=
